<svg width="135" height="135" viewBox="0 0 135 135" fill="none" xmlns="http://www.w3.org/2000/svg">
<mask id="mask0_0_6709" style="mask-type:alpha" maskUnits="userSpaceOnUse" x="0" y="0" width="135" height="134">
<circle cx="67.3838" cy="67.0967" r="66.7784" fill="white"/>
</mask>
<g mask="url(#mask0_0_6709)">
<path d="M83.6929 147.847L113.383 132.522C133.904 146.021 146.427 250.952 146.427 250.952L98.7302 226.015L83.6929 147.847Z" fill="#B044BF"/>
<path d="M113.571 174.189C112.468 194.488 110.225 221.401 105.728 252.663L2.0956 246.011L-39.535 166.905L-39.3736 130.082C-39.3736 130.082 32.1729 65.1569 114.54 133.473" fill="#6E9CFA"/>
<path d="M28.9976 103.237L37.633 70.2065L62.286 78.2102V106.029L63.0894 116.694L59.8653 123.207L53.0943 122.18L38.9206 120.934" fill="#FB98A3"/>
<mask id="mask1_0_6709" style="mask-type:alpha" maskUnits="userSpaceOnUse" x="28" y="70" width="36" height="54">
<path fill-rule="evenodd" clip-rule="evenodd" d="M28.9976 103.237L37.633 70.2065L62.286 78.2102V106.029L63.0895 116.694L59.8654 123.207L53.0944 122.18L38.9206 120.934" fill="white"/>
</mask>
<g mask="url(#mask1_0_6709)">
<path d="M69.9119 111.789C38.8107 105.695 65.8737 98.55 54.7933 93.3338C51.745 91.8989 56.5969 76.99 56.5969 76.99L65.0473 82.518" fill="#EB5F76"/>
</g>
<path d="M43.4632 69.2L52.1329 48.66L76.5006 29.5632C80.1519 51.6239 102.094 113.577 53.7316 89.7296" fill="#FB98A3"/>
<path d="M40.1618 70.5702C49.3191 74.2009 61.9577 56.0209 56.5608 50.156C56.5608 50.156 71.9872 56.3525 82.8554 47.3563C119.722 52.11 117.285 6.81101 84.9499 19.7734C68.1162 10.51 49.3816 19.6563 50.1985 30.0219C37.5331 18.8292 12.8821 59.7531 40.1618 70.5702Z" fill="#FBDF62"/>
<path d="M38.5742 80.3854C22.0731 66.4592 34.4196 45.6318 53.266 70.8198L38.5742 80.3854Z" fill="#FB98A3"/>
<rect x="69.8277" y="57.8203" width="4.58759" height="8.46133" rx="2.29362" transform="rotate(-17.8384 69.8277 57.8203)" fill="#0B2658"/>
<path d="M71.6037 49.1863C64.9141 51.016 64.3245 54.2227 68.5821 53.3516C72.8398 52.4805 75.9743 47.9921 71.6037 49.1863Z" fill="#0B2658"/>
<path d="M79.2636 59.4604C88.9569 62.0246 88.7093 71.4436 82.4877 71.2266L79.2636 59.4604Z" fill="#FB98A3"/>
<ellipse opacity="0.27" cx="67.0641" cy="68.952" rx="5.22314" ry="3.85177" transform="rotate(-8.1477 67.0641 68.952)" fill="#EB5F76"/>
<path d="M70.8878 73.5616C73.1863 75.5747 76.3985 76.1768 79.2701 75.1328" stroke="#EB637B" stroke-width="2.57517" stroke-linecap="round" stroke-linejoin="round"/>
<path d="M65.0637 137.29L53.093 122.182C53.093 122.182 62.8357 119.326 63.5011 100.104L73.0832 108.127L65.0637 137.29Z" fill="#F2E4D5"/>
<path d="M16.3071 104.05C19.6505 98.7194 25.0297 94.9896 31.194 93.7278C31.194 93.7278 28.67 114.891 53.0937 122.181L40.2638 139.658C40.2638 139.658 17.856 118.381 16.3071 104.05Z" fill="#F2E4D5"/>
</g>
</svg>
