<svg width="1000" height="1000" viewBox="0 0 1000 1000" fill="none" xmlns="http://www.w3.org/2000/svg">
<mask id="mask0_0_2911" style="mask-type:alpha" maskUnits="userSpaceOnUse" x="10" y="94" width="981" height="819">
<path fill-rule="evenodd" clip-rule="evenodd" d="M348.503 341.09C348.503 341.09 452.729 326.701 465.688 270.288C478.647 213.875 573.892 43.8964 782.54 109.072C1032.66 187.219 882.373 402.542 851.993 437.326C821.613 472.11 806.417 605.586 925.781 647.899C1045.15 690.212 1012.54 931.108 704.935 911.6C397.331 892.092 433.129 690.362 258.447 689.209C83.7651 688.056 -41.0408 516.602 30.5799 376.093C102.201 235.584 315.956 357.646 348.503 341.09Z" fill="white"/>
</mask>
<g mask="url(#mask0_0_2911)">
<path d="M348.504 341.09C348.504 341.09 452.73 326.701 465.689 270.288C478.648 213.875 573.892 43.8964 782.54 109.072C1032.66 187.219 882.373 402.542 851.993 437.326C821.613 472.11 806.417 605.586 925.781 647.899C1045.15 690.212 1012.54 931.108 704.935 911.6C397.331 892.092 433.13 690.362 258.447 689.209C83.7654 688.056 -41.0405 516.602 30.5802 376.093C102.201 235.584 315.956 357.646 348.504 341.09Z" fill="#A997FF" fill-opacity="0.55"/>
<g opacity="0.37">
<path d="M914.389 746.474C916.454 745.121 919.224 745.698 920.577 747.763L921.327 748.907C922.679 750.972 922.102 753.743 920.037 755.095L897.609 769.789C895.544 771.142 892.773 770.564 891.42 768.499L890.671 767.356C889.318 765.291 889.895 762.52 891.96 761.167L914.389 746.474Z" fill="white"/>
<path d="M842.6 806.775C842.229 804.335 843.907 802.055 846.348 801.684L847.7 801.479C850.14 801.108 852.419 802.786 852.79 805.227L856.818 831.735C857.189 834.176 855.511 836.455 853.07 836.826L851.719 837.031C849.278 837.402 846.999 835.724 846.628 833.284L842.6 806.775Z" fill="white"/>
<path d="M884.562 667.235C886.095 665.3 888.907 664.975 890.842 666.508L891.913 667.357C893.848 668.89 894.174 671.701 892.641 673.636L875.99 694.652C874.457 696.587 871.646 696.913 869.711 695.38L868.639 694.531C866.704 692.998 866.378 690.186 867.911 688.251L884.562 667.235Z" fill="white"/>
<path d="M973.469 766.772C973.098 764.331 974.776 762.052 977.217 761.681L978.569 761.476C981.01 761.105 983.289 762.783 983.66 765.223L987.688 791.732C988.059 794.173 986.381 796.452 983.94 796.823L982.588 797.028C980.147 797.399 977.868 795.721 977.497 793.28L973.469 766.772Z" fill="white"/>
<path d="M849.816 892.342C851.481 890.519 854.308 890.391 856.131 892.056L857.14 892.978C858.963 894.643 859.091 897.47 857.426 899.293L839.343 919.09C837.678 920.913 834.85 921.041 833.028 919.376L832.018 918.453C830.195 916.788 830.068 913.961 831.733 912.138L849.816 892.342Z" fill="white"/>
<path d="M949.594 850.864C950.043 848.436 952.375 846.833 954.802 847.282L956.147 847.53C958.574 847.979 960.178 850.311 959.729 852.739L954.852 879.104C954.403 881.532 952.071 883.136 949.644 882.687L948.299 882.438C945.872 881.989 944.268 879.657 944.717 877.229L949.594 850.864Z" fill="white"/>
<path d="M764.51 850.853C764.959 848.426 767.291 846.822 769.718 847.271L771.063 847.52C773.49 847.969 775.094 850.301 774.645 852.728L769.768 879.094C769.319 881.521 766.987 883.125 764.56 882.676L763.215 882.427C760.788 881.978 759.184 879.646 759.633 877.219L764.51 850.853Z" fill="white"/>
<path d="M811.234 713.045C809.6 711.194 809.776 708.369 811.627 706.735L812.652 705.831C814.502 704.197 817.327 704.372 818.961 706.223L836.706 726.323C838.34 728.174 838.165 730.999 836.314 732.633L835.289 733.537C833.438 735.171 830.614 734.996 828.98 733.145L811.234 713.045Z" fill="white"/>
<path d="M253.028 552.699C255.094 551.347 257.864 551.925 259.216 553.99L259.988 555.169C261.341 557.234 260.763 560.005 258.697 561.357L236.144 576.124C234.079 577.476 231.308 576.898 229.956 574.833L229.184 573.654C227.832 571.589 228.41 568.818 230.475 567.466L253.028 552.699Z" fill="white"/>
<path d="M182.395 611.234C182.024 608.794 183.702 606.514 186.143 606.143L187.494 605.938C189.935 605.567 192.214 607.245 192.585 609.686L196.613 636.194C196.984 638.635 195.306 640.914 192.865 641.285L191.514 641.49C189.073 641.861 186.794 640.183 186.423 637.743L182.395 611.234Z" fill="white"/>
<path d="M224.313 471.751C225.846 469.816 228.657 469.49 230.592 471.023L231.664 471.872C233.599 473.405 233.925 476.217 232.392 478.152L215.741 499.168C214.208 501.103 211.396 501.428 209.461 499.895L208.389 499.046C206.454 497.513 206.129 494.702 207.662 492.767L224.313 471.751Z" fill="white"/>
<path d="M313.241 571.233C312.87 568.792 314.548 566.513 316.989 566.142L318.341 565.936C320.782 565.565 323.061 567.243 323.432 569.684L327.46 596.193C327.83 598.633 326.153 600.912 323.712 601.283L322.36 601.489C319.919 601.86 317.64 600.182 317.269 597.741L313.241 571.233Z" fill="white"/>
<path d="M189.618 696.826C191.283 695.004 194.11 694.876 195.933 696.541L196.942 697.463C198.765 699.128 198.893 701.955 197.228 703.778L179.145 723.575C177.48 725.397 174.652 725.525 172.829 723.86L171.82 722.938C169.997 721.273 169.869 718.446 171.534 716.623L189.618 696.826Z" fill="white"/>
<path d="M289.394 655.316C289.843 652.888 292.175 651.284 294.602 651.733L295.947 651.982C298.374 652.431 299.978 654.763 299.529 657.191L294.652 683.556C294.203 685.984 291.871 687.588 289.444 687.138L288.099 686.89C285.672 686.441 284.068 684.109 284.517 681.681L289.394 655.316Z" fill="white"/>
<path d="M104.321 655.305C104.77 652.878 107.102 651.274 109.53 651.723L110.874 651.972C113.302 652.421 114.906 654.753 114.457 657.18L109.58 683.545C109.131 685.973 106.799 687.577 104.371 687.128L103.027 686.879C100.599 686.43 98.9952 684.098 99.4442 681.671L104.321 655.305Z" fill="white"/>
<path d="M151.022 517.55C149.388 515.699 149.563 512.874 151.414 511.24L152.439 510.335C154.29 508.702 157.115 508.877 158.748 510.728L176.494 530.828C178.128 532.679 177.952 535.504 176.102 537.137L175.077 538.042C173.226 539.676 170.401 539.5 168.767 537.65L151.022 517.55Z" fill="white"/>
<path d="M116.243 319.201C118.308 317.848 121.079 318.425 122.431 320.49L123.181 321.634C124.534 323.699 123.956 326.47 121.891 327.823L99.4631 342.516C97.398 343.869 94.6273 343.292 93.2744 341.227L92.5252 340.083C91.1723 338.018 91.7496 335.247 93.8147 333.894L116.243 319.201Z" fill="white"/>
<path d="M44.4619 379.857C44.092 377.416 45.7709 375.137 48.2118 374.768L49.5769 374.561C52.0178 374.191 54.2963 375.87 54.6661 378.311L58.6897 404.867C59.0596 407.308 57.3807 409.586 54.9398 409.956L53.5747 410.163C51.1338 410.533 48.8553 408.854 48.4855 406.413L44.4619 379.857Z" fill="white"/>
<path d="M86.3718 239.981C87.9049 238.046 90.7163 237.72 92.6513 239.253L93.723 240.102C95.658 241.635 95.9838 244.447 94.4507 246.382L77.7997 267.397C76.2666 269.332 73.4551 269.658 71.5202 268.125L70.4485 267.276C68.5135 265.743 68.1877 262.931 69.7208 260.996L86.3718 239.981Z" fill="white"/>
<path d="M175.505 339.829C175.135 337.388 176.814 335.11 179.255 334.74L180.62 334.533C183.061 334.163 185.339 335.842 185.709 338.283L189.733 364.839C190.103 367.28 188.424 369.558 185.983 369.928L184.618 370.135C182.177 370.505 179.899 368.826 179.529 366.385L175.505 339.829Z" fill="white"/>
<path d="M51.6955 465.05C53.3605 463.228 56.1878 463.1 58.0106 464.765L59.0201 465.687C60.8428 467.352 60.9707 470.179 59.3058 472.002L41.2224 491.799C39.5575 493.621 36.7301 493.749 34.9074 492.084L33.8978 491.162C32.0751 489.497 31.9472 486.67 33.6122 484.847L51.6955 465.05Z" fill="white"/>
<path d="M151.49 423.546C151.939 421.119 154.271 419.515 156.698 419.964L158.043 420.213C160.47 420.662 162.074 422.993 161.625 425.421L156.748 451.786C156.299 454.214 153.967 455.818 151.54 455.369L150.195 455.12C147.767 454.671 146.164 452.339 146.613 449.912L151.49 423.546Z" fill="white"/>
<path d="M13.101 285.79C11.4671 283.94 11.6428 281.115 13.4935 279.481L14.5185 278.576C16.3692 276.942 19.194 277.118 20.8278 278.969L38.5734 299.069C40.2073 300.919 40.0316 303.744 38.1809 305.378L37.1559 306.283C35.3052 307.917 32.4805 307.741 30.8466 305.89L13.101 285.79Z" fill="white"/>
<path d="M115.671 606.346C118.139 606.39 120.105 608.425 120.062 610.894L120.039 612.261C119.995 614.729 117.96 616.695 115.491 616.652L88.6826 616.184C86.2142 616.141 84.2482 614.105 84.2912 611.637L84.3151 610.27C84.3582 607.801 86.3941 605.835 88.8624 605.878L115.671 606.346Z" fill="white"/>
<path d="M22.4335 615.793C23.4998 613.566 26.1692 612.626 28.3958 613.692L29.629 614.283C31.8555 615.349 32.7961 618.018 31.7298 620.245L20.1486 644.428C19.0823 646.654 16.4129 647.595 14.1864 646.528L12.9532 645.938C10.7266 644.872 9.78606 642.202 10.8524 639.976L22.4335 615.793Z" fill="white"/>
<path d="M135.501 523.995C137.857 523.258 140.365 524.57 141.102 526.926L141.51 528.231C142.247 530.587 140.934 533.095 138.578 533.832L112.988 541.837C110.632 542.574 108.125 541.261 107.387 538.905L106.979 537.6C106.242 535.244 107.555 532.736 109.911 531.999L135.501 523.995Z" fill="white"/>
<path d="M153.118 656.32C154.184 654.094 156.854 653.153 159.08 654.219L160.314 654.81C162.54 655.876 163.481 658.546 162.414 660.772L150.833 684.955C149.767 687.181 147.097 688.122 144.871 687.056L143.638 686.465C141.411 685.399 140.471 682.729 141.537 680.503L153.118 656.32Z" fill="white"/>
<path d="M86.104 712.434C87.8408 710.68 90.671 710.666 92.4255 712.402L93.3972 713.364C95.1517 715.101 95.166 717.931 93.4292 719.686L74.566 738.741C72.8292 740.495 69.999 740.51 68.2445 738.773L67.2728 737.811C65.5184 736.074 65.504 733.244 67.2408 731.489L86.104 712.434Z" fill="white"/>
<path d="M51.0495 519.598C50.7281 517.15 52.4518 514.905 54.8995 514.584L56.2398 514.408C58.6875 514.086 60.9323 515.81 61.2537 518.258L64.7376 544.789C65.059 547.237 63.3353 549.481 60.8876 549.803L59.5473 549.979C57.0996 550.3 54.8548 548.577 54.5334 546.129L51.0495 519.598Z" fill="white"/>
<path d="M506.384 423.766C508.45 422.413 511.22 422.99 512.573 425.055L513.322 426.199C514.675 428.264 514.098 431.035 512.033 432.387L489.605 447.081C487.54 448.434 484.769 447.856 483.416 445.791L482.667 444.648C481.314 442.583 481.891 439.812 483.956 438.459L506.384 423.766Z" fill="white"/>
<path d="M434.616 484.04C434.245 481.599 435.923 479.32 438.364 478.949L439.715 478.744C442.156 478.373 444.435 480.051 444.806 482.492L448.834 509C449.205 511.441 447.527 513.72 445.086 514.091L443.735 514.296C441.294 514.667 439.015 512.989 438.644 510.549L434.616 484.04Z" fill="white"/>
<path d="M476.54 344.526C478.073 342.591 480.885 342.265 482.82 343.798L483.891 344.647C485.826 346.18 486.152 348.992 484.619 350.927L467.968 371.943C466.435 373.878 463.623 374.203 461.688 372.67L460.617 371.821C458.682 370.288 458.356 367.477 459.889 365.542L476.54 344.526Z" fill="white"/>
<path d="M565.474 444.039C565.103 441.598 566.781 439.319 569.222 438.948L570.573 438.742C573.014 438.371 575.293 440.049 575.664 442.49L579.692 468.999C580.063 471.439 578.385 473.718 575.944 474.089L574.592 474.295C572.152 474.666 569.873 472.988 569.502 470.547L565.474 444.039Z" fill="white"/>
<path d="M441.841 569.623C443.506 567.8 446.334 567.672 448.157 569.337L449.166 570.259C450.989 571.924 451.117 574.752 449.452 576.574L431.368 596.371C429.703 598.194 426.876 598.322 425.053 596.657L424.044 595.735C422.221 594.07 422.093 591.242 423.758 589.42L441.841 569.623Z" fill="white"/>
<path d="M541.622 528.125C542.071 525.697 544.402 524.093 546.83 524.542L548.174 524.791C550.602 525.24 552.206 527.572 551.757 529.999L546.88 556.365C546.431 558.792 544.099 560.396 541.671 559.947L540.327 559.699C537.899 559.25 536.295 556.918 536.744 554.49L541.622 528.125Z" fill="white"/>
<path d="M356.537 528.114C356.986 525.687 359.318 524.083 361.746 524.532L363.09 524.781C365.518 525.23 367.122 527.561 366.673 529.989L361.796 556.354C361.347 558.782 359.015 560.386 356.587 559.937L355.243 559.688C352.815 559.239 351.211 556.907 351.66 554.48L356.537 528.114Z" fill="white"/>
<path d="M403.24 390.336C401.606 388.485 401.782 385.66 403.632 384.026L404.657 383.122C406.508 381.488 409.333 381.663 410.967 383.514L428.712 403.614C430.346 405.465 430.17 408.29 428.32 409.924L427.295 410.828C425.444 412.462 422.619 412.287 420.985 410.436L403.24 390.336Z" fill="white"/>
<path d="M626.484 857.848C628.017 855.913 630.828 855.587 632.763 857.12L633.835 857.969C635.77 859.502 636.096 862.314 634.563 864.249L617.912 885.264C616.379 887.199 613.567 887.525 611.632 885.992L610.561 885.143C608.626 883.61 608.3 880.798 609.833 878.863L626.484 857.848Z" fill="white"/>
<path d="M553.147 903.645C551.513 901.794 551.689 898.969 553.54 897.335L554.565 896.43C556.415 894.797 559.24 894.972 560.874 896.823L578.62 916.923C580.253 918.774 580.078 921.599 578.227 923.232L577.202 924.137C575.351 925.771 572.527 925.596 570.893 923.745L553.147 903.645Z" fill="white"/>
<path d="M891.697 495.734C893.97 496.697 895.032 499.321 894.068 501.594L893.538 502.846C892.574 505.119 889.951 506.18 887.678 505.217L863.016 494.762C860.743 493.799 859.682 491.175 860.645 488.902L861.176 487.65C862.139 485.378 864.763 484.316 867.036 485.28L891.697 495.734Z" fill="white"/>
<path d="M800.545 469.259C802.369 467.595 805.196 467.724 806.86 469.548L807.782 470.558C809.446 472.381 809.316 475.209 807.493 476.873L787.687 494.946C785.863 496.61 783.036 496.48 781.372 494.657L780.45 493.647C778.786 491.823 778.915 488.996 780.739 487.332L800.545 469.259Z" fill="white"/>
<path d="M939.739 426.597C942.199 426.797 944.031 428.954 943.831 431.415L943.72 432.778C943.519 435.238 941.362 437.07 938.901 436.87L912.177 434.691C909.717 434.491 907.885 432.334 908.085 429.873L908.196 428.51C908.397 426.05 910.554 424.218 913.015 424.418L939.739 426.597Z" fill="white"/>
<path d="M906.495 555.851C908.318 554.187 911.146 554.317 912.81 556.14L913.731 557.15C915.395 558.974 915.266 561.801 913.442 563.465L893.636 581.538C891.812 583.202 888.985 583.073 887.321 581.249L886.399 580.239C884.735 578.416 884.865 575.588 886.688 573.924L906.495 555.851Z" fill="white"/>
<path d="M733.378 522.82C735.818 523.192 737.495 525.472 737.123 527.913L736.917 529.264C736.545 531.705 734.265 533.381 731.824 533.009L705.318 528.968C702.877 528.595 701.201 526.315 701.573 523.875L701.779 522.523C702.151 520.083 704.431 518.406 706.872 518.778L733.378 522.82Z" fill="white"/>
<path d="M823.314 582.754C825.582 581.779 828.211 582.827 829.186 585.095L829.726 586.351C830.701 588.62 829.653 591.249 827.385 592.223L802.751 602.812C800.483 603.787 797.854 602.738 796.879 600.47L796.339 599.214C795.364 596.946 796.413 594.317 798.681 593.342L823.314 582.754Z" fill="white"/>
<path d="M720.518 428.833C722.786 427.858 725.415 428.906 726.39 431.174L726.93 432.43C727.905 434.698 726.856 437.327 724.588 438.302L699.955 448.891C697.687 449.866 695.058 448.817 694.083 446.549L693.543 445.293C692.568 443.025 693.616 440.396 695.884 439.421L720.518 428.833Z" fill="white"/>
<path d="M861.04 391.084C861.672 388.697 864.118 387.274 866.505 387.906L867.827 388.256C870.213 388.887 871.636 391.334 871.005 393.72L864.146 419.641C863.515 422.028 861.068 423.45 858.682 422.819L857.36 422.469C854.973 421.838 853.551 419.391 854.182 417.005L861.04 391.084Z" fill="white"/>
<path d="M851.474 242.54C853.746 243.506 854.805 246.13 853.839 248.402L853.304 249.661C852.338 251.932 849.714 252.991 847.442 252.026L822.766 241.536C820.494 240.57 819.435 237.946 820.401 235.674L820.936 234.415C821.901 232.143 824.526 231.084 826.798 232.05L851.474 242.54Z" fill="white"/>
<path d="M761.494 216.298C763.318 214.634 766.145 214.763 767.809 216.587L768.73 217.597C770.395 219.42 770.265 222.248 768.442 223.912L748.635 241.985C746.812 243.649 743.984 243.519 742.32 241.696L741.399 240.686C739.735 238.862 739.864 236.035 741.688 234.371L761.494 216.298Z" fill="white"/>
<path d="M900.685 173.649C903.146 173.85 904.978 176.007 904.777 178.467L904.666 179.83C904.466 182.291 902.309 184.123 899.848 183.922L873.124 181.744C870.663 181.543 868.831 179.386 869.032 176.926L869.143 175.563C869.344 173.102 871.501 171.27 873.961 171.471L900.685 173.649Z" fill="white"/>
<path d="M867.432 302.902C869.255 301.238 872.083 301.367 873.747 303.191L874.668 304.201C876.332 306.024 876.203 308.852 874.379 310.516L854.573 328.589C852.749 330.253 849.922 330.123 848.258 328.3L847.336 327.29C845.672 325.466 845.802 322.639 847.625 320.975L867.432 302.902Z" fill="white"/>
<path d="M694.326 269.855C696.767 270.227 698.443 272.507 698.071 274.947L697.865 276.299C697.493 278.74 695.213 280.416 692.772 280.044L666.266 276.002C663.826 275.63 662.149 273.35 662.521 270.91L662.727 269.558C663.099 267.118 665.379 265.441 667.82 265.813L694.326 269.855Z" fill="white"/>
<path d="M784.261 329.784C786.53 328.809 789.158 329.858 790.133 332.126L790.673 333.382C791.648 335.65 790.6 338.279 788.332 339.254L763.698 349.842C761.43 350.817 758.801 349.769 757.827 347.501L757.287 346.245C756.312 343.977 757.36 341.348 759.628 340.373L784.261 329.784Z" fill="white"/>
<path d="M681.465 175.863C683.733 174.888 686.362 175.937 687.337 178.205L687.877 179.461C688.852 181.729 687.803 184.358 685.535 185.333L660.902 195.921C658.634 196.896 656.005 195.848 655.03 193.58L654.49 192.324C653.515 190.056 654.563 187.427 656.831 186.452L681.465 175.863Z" fill="white"/>
<path d="M824.392 141.668C825.031 139.284 827.482 137.869 829.866 138.508L831.229 138.873C833.614 139.512 835.029 141.964 834.39 144.348L827.408 170.393C826.769 172.778 824.318 174.192 821.934 173.553L820.571 173.188C818.186 172.549 816.771 170.098 817.41 167.713L824.392 141.668Z" fill="white"/>
<path d="M428.157 331.206C428.575 333.639 426.941 335.95 424.508 336.368L423.115 336.607C420.682 337.025 418.37 335.391 417.953 332.958L413.388 306.374C412.97 303.941 414.604 301.629 417.037 301.212L418.43 300.972C420.863 300.555 423.174 302.188 423.592 304.621L428.157 331.206Z" fill="white"/>
<path d="M402.81 243.34C405.199 243.966 406.627 246.409 406.002 248.797L405.655 250.12C405.03 252.508 402.586 253.936 400.198 253.311L374.261 246.516C371.873 245.89 370.444 243.447 371.07 241.059L371.416 239.736C372.042 237.348 374.485 235.919 376.873 236.545L402.81 243.34Z" fill="white"/>
<path d="M514.301 336.997C515.471 339.171 514.657 341.881 512.483 343.051L511.279 343.699C509.105 344.868 506.394 344.054 505.224 341.88L492.521 318.268C491.351 316.094 492.166 313.383 494.34 312.213L495.544 311.566C497.718 310.396 500.428 311.21 501.598 313.384L514.301 336.997Z" fill="white"/>
<path d="M387.733 379.356C390.121 379.982 391.55 382.425 390.925 384.813L390.578 386.136C389.952 388.524 387.509 389.953 385.121 389.327L359.184 382.532C356.796 381.907 355.367 379.463 355.992 377.075L356.339 375.753C356.965 373.365 359.408 371.936 361.796 372.561L387.733 379.356Z" fill="white"/>
<path d="M321.329 216.088C322.344 218.338 321.342 220.985 319.092 222L317.845 222.562C315.595 223.577 312.948 222.575 311.933 220.324L300.912 195.882C299.897 193.631 300.899 190.984 303.15 189.969L304.396 189.407C306.647 188.392 309.294 189.394 310.308 191.645L321.329 216.088Z" fill="white"/>
<path d="M319.084 323.057C321.131 324.437 321.67 327.216 320.29 329.262L319.518 330.406C318.137 332.453 315.359 332.992 313.312 331.612L291.048 316.59C289.002 315.21 288.462 312.431 289.843 310.385L290.615 309.241C291.996 307.194 294.774 306.655 296.821 308.035L319.084 323.057Z" fill="white"/>
<path d="M393.239 154.197C395.29 155.57 395.84 158.347 394.466 160.398L393.706 161.534C392.333 163.586 389.556 164.135 387.505 162.762L365.224 147.846C363.172 146.473 362.623 143.697 363.996 141.645L364.757 140.509C366.13 138.458 368.906 137.908 370.958 139.281L393.239 154.197Z" fill="white"/>
<path d="M501.207 251.592C503.553 250.824 506.077 252.105 506.845 254.451L507.27 255.751C508.037 258.097 506.757 260.621 504.411 261.389L478.926 269.723C476.58 270.49 474.056 269.21 473.288 266.864L472.863 265.564C472.096 263.218 473.376 260.694 475.722 259.926L501.207 251.592Z" fill="white"/>
<path d="M701.26 110.461C700.15 112.666 697.462 113.553 695.257 112.443L694.036 111.828C691.831 110.717 690.944 108.03 692.054 105.825L704.114 81.8773C705.225 79.6724 707.912 78.7852 710.117 79.8956L711.338 80.5105C713.543 81.6209 714.43 84.3085 713.32 86.5134L701.26 110.461Z" fill="white"/>
<path d="M766.792 164.126C766.434 166.569 764.163 168.258 761.72 167.9L760.368 167.701C757.925 167.343 756.236 165.072 756.594 162.63L760.488 136.101C760.846 133.659 763.117 131.969 765.56 132.328L766.912 132.526C769.355 132.885 771.044 135.155 770.686 137.598L766.792 164.126Z" fill="white"/>
<path d="M639.985 122.601C641.528 124.528 641.217 127.341 639.29 128.884L638.223 129.739C636.296 131.282 633.483 130.971 631.939 129.044L615.179 108.115C613.635 106.189 613.946 103.375 615.873 101.832L616.941 100.978C618.867 99.4343 621.681 99.7454 623.224 101.672L639.985 122.601Z" fill="white"/>
<path d="M807.255 87.7722C809.596 88.5563 810.857 91.0897 810.073 93.4305L809.639 94.727C808.855 97.0679 806.322 98.3298 803.981 97.5457L778.557 89.029C776.216 88.2449 774.954 85.7115 775.738 83.3707L776.172 82.0742C776.956 79.7333 779.49 78.4714 781.831 79.2555L807.255 87.7722Z" fill="white"/>
<path d="M734.602 702.583C737.056 702.853 738.827 705.06 738.558 707.514L738.409 708.873C738.14 711.327 735.932 713.098 733.478 712.829L706.826 709.906C704.372 709.636 702.6 707.429 702.87 704.975L703.019 703.616C703.288 701.162 705.495 699.391 707.949 699.66L734.602 702.583Z" fill="white"/>
<path d="M641.008 703.507C642.273 701.387 645.018 700.695 647.137 701.96L648.311 702.661C650.431 703.927 651.123 706.671 649.858 708.791L636.112 731.812C634.847 733.932 632.103 734.624 629.983 733.358L628.809 732.658C626.689 731.392 625.997 728.648 627.262 726.528L641.008 703.507Z" fill="white"/>
<path d="M761.952 622.495C764.366 621.977 766.742 623.513 767.261 625.927L767.548 627.264C768.066 629.677 766.53 632.054 764.116 632.572L737.901 638.202C735.487 638.72 733.11 637.184 732.592 634.77L732.305 633.433C731.787 631.02 733.323 628.643 735.737 628.125L761.952 622.495Z" fill="white"/>
<path d="M767.434 755.825C768.7 753.706 771.444 753.013 773.564 754.279L774.737 754.98C776.857 756.245 777.55 758.99 776.284 761.109L762.539 784.131C761.273 786.25 758.529 786.943 756.409 785.677L755.235 784.976C753.116 783.711 752.423 780.966 753.689 778.847L767.434 755.825Z" fill="white"/>
<path d="M592.137 774.217C594.581 773.869 596.844 775.568 597.193 778.012L597.386 779.366C597.734 781.81 596.035 784.073 593.591 784.421L567.046 788.204C564.602 788.552 562.339 786.853 561.99 784.409L561.797 783.056C561.449 780.612 563.148 778.348 565.592 778L592.137 774.217Z" fill="white"/>
<path d="M695.563 805.594C697.453 804.006 700.273 804.25 701.861 806.14L702.741 807.187C704.329 809.077 704.084 811.897 702.194 813.485L681.666 830.734C679.776 832.323 676.957 832.078 675.369 830.188L674.489 829.141C672.901 827.251 673.145 824.431 675.035 822.843L695.563 805.594Z" fill="white"/>
<path d="M552.707 687.893C554.597 686.305 557.417 686.549 559.005 688.439L559.885 689.486C561.473 691.376 561.228 694.196 559.338 695.784L538.81 713.033C536.92 714.621 534.101 714.377 532.513 712.487L531.633 711.44C530.045 709.55 530.289 706.73 532.179 705.142L552.707 687.893Z" fill="white"/>
<path d="M676.256 611.289C676.172 608.822 678.104 606.754 680.571 606.67L681.938 606.623C684.405 606.539 686.473 608.471 686.557 610.938L687.47 637.736C687.554 640.203 685.622 642.271 683.154 642.355L681.788 642.402C679.321 642.486 677.252 640.554 677.168 638.086L676.256 611.289Z" fill="white"/>
<path d="M465.395 737.454C467.849 737.723 469.62 739.931 469.35 742.385L469.201 743.744C468.932 746.198 466.725 747.969 464.271 747.7L437.618 744.776C435.164 744.507 433.393 742.299 433.662 739.845L433.811 738.486C434.08 736.032 436.288 734.261 438.742 734.53L465.395 737.454Z" fill="white"/>
<path d="M371.758 738.385C373.023 736.266 375.768 735.573 377.887 736.839L379.061 737.54C381.181 738.805 381.873 741.55 380.608 743.669L366.862 766.691C365.597 768.81 362.853 769.503 360.733 768.237L359.559 767.536C357.439 766.271 356.747 763.526 358.012 761.407L371.758 738.385Z" fill="white"/>
<path d="M492.722 657.353C495.136 656.835 497.512 658.371 498.031 660.785L498.318 662.122C498.836 664.536 497.3 666.913 494.886 667.431L468.671 673.06C466.257 673.579 463.88 672.042 463.362 669.629L463.075 668.292C462.557 665.878 464.093 663.501 466.507 662.983L492.722 657.353Z" fill="white"/>
<path d="M498.196 790.704C499.461 788.584 502.206 787.892 504.325 789.157L505.499 789.858C507.619 791.124 508.311 793.868 507.046 795.988L493.3 819.009C492.035 821.129 489.291 821.821 487.171 820.556L485.997 819.855C483.877 818.589 483.185 815.845 484.45 813.725L498.196 790.704Z" fill="white"/>
<path d="M322.889 809.084C325.333 808.736 327.597 810.435 327.945 812.879L328.138 814.232C328.486 816.676 326.787 818.94 324.343 819.288L297.799 823.071C295.355 823.419 293.091 821.72 292.743 819.276L292.55 817.922C292.202 815.478 293.901 813.215 296.345 812.867L322.889 809.084Z" fill="white"/>
<path d="M426.316 840.461C428.206 838.873 431.026 839.118 432.614 841.008L433.494 842.055C435.082 843.945 434.837 846.764 432.947 848.353L412.42 865.602C410.53 867.19 407.71 866.945 406.122 865.055L405.242 864.008C403.654 862.118 403.899 859.299 405.789 857.711L426.316 840.461Z" fill="white"/>
<path d="M283.468 722.781C285.358 721.193 288.178 721.437 289.766 723.327L290.645 724.374C292.234 726.264 291.989 729.084 290.099 730.672L269.571 747.921C267.681 749.509 264.861 749.265 263.273 747.375L262.394 746.328C260.806 744.438 261.05 741.618 262.94 740.03L283.468 722.781Z" fill="white"/>
<path d="M407.026 646.141C406.942 643.673 408.874 641.605 411.341 641.521L412.708 641.474C415.175 641.39 417.243 643.322 417.327 645.79L418.24 672.587C418.324 675.054 416.392 677.122 413.925 677.206L412.558 677.253C410.091 677.337 408.022 675.405 407.938 672.938L407.026 646.141Z" fill="white"/>
</g>
</g>
<path d="M292.228 862.784C292.228 862.784 268.443 822.639 255.426 840.544C242.41 858.449 264.108 888.287 231.549 883.941C198.99 879.594 187.645 890.224 185.431 909.628C213.817 910.954 296.61 909.029 296.61 909.029C296.61 909.029 300.818 864.41 292.228 862.784Z" fill="#1E9E6A" stroke="#232323" stroke-width="1.41"/>
<path d="M280.111 866.993C280.111 866.993 307.782 866.451 303.435 842.031C299.088 817.612 349.23 803.512 358.073 831.182C366.916 858.853 339.245 896.831 280.111 866.993H280.111Z" fill="#09683D" stroke="#232323" stroke-width="1.41"/>
<path d="M389.433 805.276C389.433 805.276 413.841 781.952 437.718 803.108C461.596 824.265 428.091 850.31 457.318 848.142C486.545 845.975 501.441 886.869 487.756 910.401C470.808 908.937 366.697 910.401 366.697 910.401C366.697 910.401 366.639 806.901 389.433 805.276Z" fill="#232323" stroke="#232323" stroke-width="1.41"/>
<path d="M247.287 909.029C247.287 909.029 276.041 909.029 274.416 886.12C266.818 853.561 292.863 848.142 312.393 856.282C331.924 864.422 355.929 860.409 351.893 827.527C347.858 794.646 391.266 781.744 409.886 810.06C428.506 838.377 381.835 874.175 431.204 866.555C480.573 858.934 444.774 910.366 444.774 910.366L247.287 909.029Z" fill="#21D855" stroke="#232323" stroke-width="1.41"/>
<path d="M861.758 910.366H52.2783" stroke="#232323" stroke-width="1.41"/>
<path d="M337.966 858.565C337.966 858.565 317.835 768.485 280.111 743.271" stroke="#232323" stroke-width="1.41"/>
<path d="M325.972 766.411C330.779 755.392 332.561 745.537 329.952 744.399C327.343 743.261 321.331 751.271 316.524 762.289C311.717 773.308 309.935 783.164 312.544 784.302C315.153 785.44 321.164 777.43 325.972 766.411Z" fill="#21D855" stroke="#232323" stroke-width="1.41"/>
<path d="M345.789 818.012C350.596 806.993 352.378 797.138 349.769 796C347.161 794.862 341.149 802.872 336.342 813.891C331.534 824.91 329.752 834.765 332.361 835.903C334.97 837.041 340.982 829.031 345.789 818.012Z" fill="#21D855" stroke="#232323" stroke-width="1.41"/>
<path d="M320.429 806.436C320.626 803.597 311.063 800.62 299.07 799.788C287.077 798.955 277.195 800.583 276.998 803.422C276.801 806.261 286.363 809.238 298.356 810.07C310.349 810.903 320.231 809.276 320.429 806.436Z" fill="#21D855" stroke="#232323" stroke-width="1.41"/>
<path d="M282.019 767.388C290.887 766.416 297.889 763.926 297.659 761.824C297.429 759.723 290.053 758.806 281.185 759.778C272.317 760.749 265.315 763.24 265.545 765.341C265.776 767.443 273.151 768.359 282.019 767.388Z" fill="#21D855" stroke="#232323" stroke-width="1.41"/>
<path d="M300.547 738.809C302.286 730.059 302.014 722.632 299.941 722.22C297.867 721.808 294.777 728.567 293.038 737.317C291.299 746.067 291.571 753.494 293.644 753.906C295.717 754.318 298.808 747.559 300.547 738.809Z" fill="#21D855" stroke="#232323" stroke-width="1.41"/>
<path d="M285.974 747.149C287.037 745.632 282.701 740.757 276.287 736.262C269.874 731.766 263.813 729.352 262.749 730.869C261.686 732.386 266.022 737.261 272.436 741.756C278.849 746.252 284.91 748.666 285.974 747.149Z" fill="#21D855" stroke="#232323" stroke-width="1.41"/>
<path d="M310.284 178.599C352.324 173.221 385.61 162.656 384.631 155.001C383.651 147.346 348.778 145.5 306.738 150.878C264.698 156.256 231.413 166.821 232.392 174.476C233.371 182.131 268.245 183.977 310.284 178.599Z" fill="#232323" stroke="#232323" stroke-width="1.41"/>
<path d="M372.082 672.163C402.545 668.267 426.664 660.612 425.955 655.067C425.245 649.521 399.976 648.185 369.513 652.081C339.051 655.978 314.932 663.633 315.641 669.178C316.35 674.724 341.62 676.06 372.082 672.163Z" fill="#232323" stroke="#232323" stroke-width="1.41"/>
<path d="M570.664 625.867C576.267 627.158 581.64 628.645 586.805 630.271C605.091 604.018 714.447 517.294 704.278 496.265C692.887 472.664 622.489 445.408 613.542 476.734C613.542 476.734 604.86 487.179 581.398 491.929C560.864 496.08 498.386 507.194 474.612 561.187C528.824 563.343 570.664 625.867 570.664 625.867Z" fill="#F9BDE8"/>
<path d="M651.37 483.063C651.37 483.063 600.64 505.096 552.77 579.818" stroke="white" stroke-linecap="round"/>
<path d="M630.086 478.313C619.959 489.401 606.944 497.449 592.5 501.556C567.067 508.474 534.392 519.162 516.798 555.745" stroke="white" stroke-linecap="round"/>
<path fill-rule="evenodd" clip-rule="evenodd" d="M570.664 625.867C576.267 627.158 581.64 628.645 586.805 630.271C605.091 604.018 714.447 517.294 704.278 496.264C692.887 472.664 622.489 445.408 613.542 476.734C613.542 476.734 604.86 487.179 581.398 491.929C560.864 496.08 498.386 507.194 474.612 561.187C528.824 563.343 570.664 625.867 570.664 625.867Z" stroke="#232323"/>
<path d="M661.066 763.147C639.656 726.576 591.578 644.925 584.649 637.062C583.646 635.909 584.522 633.603 586.817 630.271C581.64 628.645 576.267 627.158 570.675 625.867C570.675 625.867 528.847 563.343 474.624 561.187C471.029 569.444 468.488 578.121 467.061 587.012C454.447 663.51 530.922 711.841 640.521 774.596C643.792 776.898 646.542 779.864 648.591 783.301L661.066 763.147Z" fill="#F97450" stroke="#232323"/>
<path d="M694.651 500.496C675.397 487.375 642.192 500.888 626.835 510.78C611.097 520.926 595.648 512.947 576.648 522.713C563.296 529.573 555.491 547.674 566.271 571.01C575.552 590.99 559.803 588.5 551.513 602.762C558.476 609.935 564.864 617.645 570.618 625.82C576.221 627.112 581.594 628.599 586.759 630.225C599.107 612.481 653.018 567.101 683.606 533.078C687.572 507.69 706.157 508.336 694.651 500.496Z" fill="#232323"/>
<path d="M675.973 483.651C619.076 505.027 587.693 562.132 570.664 625.867C583.346 629.787 633.741 647.231 656.777 683.652C657.667 682.403 658.749 681.302 659.982 680.389C736.699 622.823 771.817 538.935 771.817 538.935C774.031 503.54 758.559 450.02 675.973 483.651Z" fill="#F9BDE8"/>
<path d="M679.513 495.308C679.513 495.308 621.347 517.121 589.78 616.159" stroke="white" stroke-width="1.41" stroke-linecap="round"/>
<path d="M698.364 509.016C698.364 509.016 635.021 543.812 612.481 625.867" stroke="white" stroke-width="1.41" stroke-linecap="round"/>
<path d="M722.714 522.713C722.714 522.713 649.882 564.461 634.64 640.959" stroke="white" stroke-width="1.41" stroke-linecap="round"/>
<path d="M738.866 542.659C738.866 542.659 670.128 602.854 648.245 653.145" stroke="white" stroke-width="1.41" stroke-linecap="round"/>
<path d="M656.8 666.369C656.8 666.369 746.625 565.591 747.882 562.662" stroke="white" stroke-width="1.41" stroke-linecap="round"/>
<path d="M681.335 481.553C679.571 482.21 677.795 482.902 675.973 483.64C672.641 484.896 669.413 486.28 666.254 487.767C672.111 490.604 731.292 520.592 748.032 582.85C764.173 557.347 771.864 538.923 771.864 538.923C772.509 528.362 771.587 516.199 767.782 505.211C743.64 493.082 703.586 481.08 681.335 481.553Z" fill="#232323"/>
<path d="M648.937 829.522C665.217 798.6 671.316 780.695 671.316 780.695C671.316 780.695 667.326 773.847 661.066 763.147L648.626 783.301C654.494 793.066 656.062 808.158 648.937 829.522Z" fill="#7F0E0E" stroke="#232323" stroke-width="1.41"/>
<path d="M640.843 503.563C604.583 527.601 581.086 586.84 570.664 625.867C583.346 629.787 633.741 647.231 656.777 683.652C657.667 682.403 658.749 681.302 659.982 680.389C736.699 622.823 771.817 538.935 771.817 538.935C773.985 503.54 758.513 450.02 675.927 483.651" stroke="#232323" stroke-width="1.41" stroke-linecap="round"/>
<path d="M666.024 298.985C655.427 301.123 644.982 303.954 634.756 307.459C634.756 307.459 588.212 319.692 586.955 355.364C586.079 380.405 575.425 409.944 562.812 409.978C568.969 422.153 576.832 446.077 566.271 476.999C590.068 475.143 606.532 465.32 616.874 452.718C615.859 461.457 614.568 469.632 613.496 476.757C670.462 477.979 760.795 530.472 768.935 545.126C848.73 380.705 666.024 298.985 666.024 298.985Z" fill="#F9B01C"/>
<g opacity="0.6">
<path d="M713.294 363.619C713.294 363.619 700.739 380.555 713.294 389.79C725.85 399.025 725.85 346.659 713.294 363.619Z" fill="white"/>
<path d="M789.089 460.95C783.07 458.84 776.913 458.725 776.706 466.968C776.302 483.248 760.023 483.594 750.673 477.345C741.322 471.096 724.443 478.048 732.352 500.404C739.466 520.465 766.941 513.997 775.726 529.907C785.733 504.854 789.607 481.887 789.089 460.95Z" fill="white"/>
<path d="M696.554 448.66C696.554 448.66 677.046 475.696 652.823 459.739C628.599 443.783 637.016 466.772 626.974 459.739C616.932 452.706 626.789 420.539 638.503 427.1C650.217 433.66 663.556 443.783 675.997 431.769C688.437 419.755 705.097 436.046 696.554 448.66Z" fill="white"/>
<path d="M651.762 375.01C651.762 375.01 664.513 364.426 661.608 356.286C658.703 348.146 662.53 338.784 671.316 341.298C680.101 343.811 683.606 367.343 671.316 375.067C659.025 382.792 644.371 383.253 651.762 375.01Z" fill="white"/>
<path d="M704.762 503.563C705.915 497.21 705.005 491.249 702.779 493.647C698.018 498.755 694.109 482.844 683.525 482.844C678.694 482.844 675.386 486.372 673.218 490.188C683.975 494.166 694.64 498.743 704.762 503.563Z" fill="white"/>
<path d="M584.165 376.635C581.859 386.724 578.273 395.993 573.984 402.173C578.596 405.148 584.222 411.569 592.431 407.638C602.381 402.865 590.714 385.294 584.165 376.635Z" fill="white"/>
<path d="M609.011 460.685C608.354 451.565 586.92 456.765 582.205 443.391C579.899 436.669 575.287 436.369 570.998 438.099C572.284 451.232 570.687 464.489 566.317 476.941C584.776 475.535 598.819 469.286 609.011 460.685Z" fill="white"/>
<path d="M603.765 419.605C603.765 419.605 586.344 420.989 589.768 428.725C593.192 436.461 607.212 432.322 600.398 440.497C593.584 448.671 626.559 436.127 603.765 419.605Z" fill="white"/>
<path d="M719.578 462.622C719.578 462.622 730.727 453.721 740.907 459.739C751.088 465.758 757.348 450.677 745.876 443.368C734.405 436.058 699.055 460.708 719.578 462.622Z" fill="white"/>
</g>
<path d="M562.812 409.955C560.38 409.955 557.878 408.895 555.353 406.496C537.24 389.202 467.326 316.037 461.354 320.914C459.048 323.496 472.145 334.138 464.812 336.179C457.48 338.219 450.839 350.014 461.077 356.724C471.315 363.434 470.715 350.014 481.703 362.212C492.69 374.41 499.735 478.094 559.55 477.31C561.855 477.31 564.161 477.149 566.317 476.976C576.832 446.054 568.969 422.13 562.812 409.955Z" fill="#F97450"/>
<path fill-rule="evenodd" clip-rule="evenodd" d="M666.024 298.985C655.427 301.123 644.982 303.954 634.756 307.459C634.756 307.459 588.212 319.692 586.955 355.364C585.906 385.225 571.01 421.485 555.353 406.497C537.24 389.202 467.326 316.037 461.354 320.914C459.048 323.496 472.145 334.138 464.812 336.179C457.48 338.219 450.839 350.014 461.077 356.724C471.315 363.434 470.715 350.014 481.703 362.212C492.69 374.41 499.735 478.094 559.55 477.31C587.036 476.941 605.667 466.473 616.92 452.695C615.905 461.434 614.614 469.609 613.542 476.734C670.509 477.956 760.842 530.449 768.981 545.103C848.73 380.705 666.024 298.985 666.024 298.985Z" stroke="#232323" stroke-width="1.41"/>
<path d="M800.676 407.684C820.864 387.796 828.461 352.412 799.638 322.516C755.688 276.952 673.126 297.44 673.126 297.44C650.989 300.968 644.464 346.394 671.316 333.919C677.749 330.933 695.988 339.015 702.33 340.018C722.472 343.188 740.123 362.466 742.394 372.162C771.033 379.01 791.936 398.345 800.676 407.684Z" fill="#F9B01C"/>
<g opacity="0.6">
<path d="M793.435 316.74C783.75 319.68 770.561 325.41 775.08 333.919C781.998 346.936 803.569 351.213 791.763 362.304C781.387 372.07 799.742 386.816 817.624 376.22C820.852 359.226 816.471 339.949 799.638 322.516C797.67 320.487 795.6 318.559 793.435 316.74V316.74Z" fill="white"/>
<path d="M738.728 321.006C738.728 321.006 725.815 331.013 742.498 341.182C759.181 351.351 742.268 360.932 751.941 362.65C761.614 364.368 760.565 307.747 738.728 321.006Z" fill="white"/>
<path d="M682.937 295.526C680.124 302.593 678.568 311.068 687.48 310.641C702.652 309.903 705.627 296.806 713.294 310.641C719.209 321.363 736.549 304.876 735.004 293.866C717.651 292.117 700.143 292.675 682.937 295.526Z" fill="white"/>
</g>
<path d="M726.046 384.983C726.046 384.983 724.42 352.7 702.445 340.836C712.014 340.836 742.118 355.271 743.755 379.887C739.477 398.818 726.046 384.983 726.046 384.983Z" fill="#232323"/>
<path d="M621.291 353.103C620.642 351.596 621.338 349.849 622.845 349.201L623.69 348.837C625.197 348.189 626.944 348.885 627.592 350.391L665.69 438.938C666.338 440.445 665.642 442.192 664.135 442.84L663.29 443.204C661.784 443.852 660.037 443.156 659.388 441.65L621.291 353.103Z" fill="white" stroke="#232323" stroke-width="1.41" stroke-linecap="round"/>
<path d="M648.533 400.374C633.292 413.057 637.408 413.933 647.45 407.696C640.394 415.293 639.506 423.007 653.872 431.769C677.749 387.012 720.961 419.905 761.925 423.156C776.014 424.309 790.08 418.107 800.676 407.684C791.936 398.345 771.033 379.01 742.394 372.162C708.752 368.634 661.412 389.64 648.533 400.374Z" fill="#F97450"/>
<path d="M673.126 297.44C673.126 297.44 755.688 276.952 799.638 322.516C828.461 352.412 820.864 387.796 800.676 407.684C790.08 418.06 776.014 424.286 761.925 423.156C720.961 419.905 677.76 387.012 653.872 431.769C639.909 423.26 640.359 415.731 646.862 408.353C646.897 408.324 646.914 408.279 646.906 408.234C646.899 408.189 646.868 408.152 646.825 408.136C646.783 408.12 646.735 408.128 646.7 408.157C637.212 413.921 633.672 412.768 648.533 400.374C661.435 389.64 708.752 368.634 742.394 372.162C740.088 362.466 722.472 343.188 702.33 340.018" stroke="#232323" stroke-width="1.41" stroke-linecap="round"/>
<path d="M660.57 261.041C660.57 261.041 663.291 285.069 673.126 297.44C674.201 298.781 674.654 300.517 674.371 302.213C670.036 328.096 640.105 353.542 630.098 356.286C629.487 350.394 646.239 302.72 633.891 289.969C629.775 285.714 647.784 248.786 660.57 261.041Z" fill="#F97450" stroke="#232323" stroke-width="1.41"/>
<path d="M625.544 231.169C625.544 231.169 609.679 248.866 613.542 278.635C617.404 308.404 655.647 300.541 660.743 280.814C665.839 261.088 647.922 203.498 625.544 231.169Z" fill="#F97450"/>
<path d="M625.544 231.169C625.544 231.169 609.679 248.866 613.542 278.635C616.435 300.91 638.676 302.132 651.762 293.024" stroke="#232323" stroke-width="1.41" stroke-linecap="round"/>
<path d="M664.075 278.001C664.075 278.001 696.277 223.813 667.257 216.319C649.421 211.707 638.976 220.181 639.783 205.942C640.59 191.703 623.365 180.716 607.846 194.955C592.328 209.194 599.43 258.77 644.464 253.075C643.103 261.041 642.296 273.897 649.352 278.001C647.992 268.778 650.159 258.989 656.938 258.609C663.718 258.228 656.028 275.522 664.075 278.001Z" fill="#232323"/>
<path d="M606.22 370.536C606.22 370.536 624.368 410.347 616.92 452.695" stroke="#232323" stroke-width="1.41" stroke-linecap="round"/>
<path d="M606.22 370.536C605.944 381.927 636.819 455.981 569.707 464.397C568.852 468.648 567.72 472.838 566.317 476.941C590.114 475.085 606.578 465.262 616.92 452.66C624.287 410.336 606.22 370.536 606.22 370.536V370.536Z" fill="#232323"/>
<path d="M649.029 204.109C626.397 129.906 579.126 78.6346 543.454 89.5529C538.227 91.1946 533.458 94.0375 529.527 97.8541C533.353 95.3795 537.632 93.6904 542.117 92.8849C578.85 86.463 619.479 143.176 632.842 219.559C643.599 281.022 633.43 336.467 609.91 359.157C615.084 359.984 620.379 359.645 625.405 358.165C661.077 347.247 671.65 278.289 649.029 204.109Z" fill="#57B5E5"/>
<path d="M632.842 219.524C619.479 143.142 578.85 86.4285 542.117 92.8504C537.632 93.6559 533.353 95.345 529.527 97.8196C505.419 120.602 500.496 180.14 519.831 243.528C539.315 307.367 577.028 354.211 609.91 359.122C633.43 336.432 643.599 280.941 632.842 219.524Z" fill="#93D2F9"/>
<path fill-rule="evenodd" clip-rule="evenodd" d="M543.454 89.553C546.66 88.5685 549.994 88.0673 553.347 88.0657C587.439 88.0541 628.426 136.616 649.041 204.144C671.661 278.324 661.089 347.281 625.417 358.165C622.21 359.138 618.876 359.628 615.525 359.618C581.421 359.618 540.434 311.056 519.831 243.563C497.21 169.394 507.782 100.437 543.454 89.553ZM599.995 125.974C584.049 106.778 567.482 96.1939 553.358 96.1939L553.393 96.1478C550.844 96.1601 548.311 96.5486 545.875 97.3007C531.983 101.544 521.767 118.573 517.871 144.018C513.593 171.977 517.075 206.427 527.671 241.153C537.205 272.582 551.882 301.175 568.877 321.732C584.81 340.929 601.378 351.501 615.513 351.501C618.062 351.489 620.595 351.101 623.03 350.348C636.923 346.105 647.138 329.077 651.035 303.62C655.313 275.718 651.842 241.222 641.235 206.484C631.654 175.067 617 146.474 599.995 125.974Z" fill="white"/>
<path d="M553.347 88.0657L553.346 87.3607L553.346 87.3607L553.347 88.0657ZM543.454 89.553L543.66 90.2273L543.661 90.2269L543.454 89.553ZM649.041 204.144L649.715 203.938L649.715 203.938L649.041 204.144ZM625.417 358.165L625.622 358.84L625.623 358.84L625.417 358.165ZM615.525 359.618L615.527 358.913H615.525V359.618ZM519.831 243.563L519.156 243.769L519.156 243.769L519.831 243.563ZM553.358 96.1939L552.794 95.7709L551.948 96.8989H553.358V96.1939ZM599.995 125.974L600.537 125.524L600.537 125.524L599.995 125.974ZM553.393 96.1478L553.957 96.5708L554.808 95.436L553.389 95.4428L553.393 96.1478ZM545.875 97.3007L546.081 97.975L546.084 97.9743L545.875 97.3007ZM517.871 144.018L517.174 143.911L517.174 143.911L517.871 144.018ZM527.671 241.153L528.345 240.949L528.345 240.947L527.671 241.153ZM568.877 321.732L568.333 322.181L568.334 322.183L568.877 321.732ZM615.513 351.501V352.206L615.516 352.206L615.513 351.501ZM623.03 350.348L622.824 349.674L622.822 349.675L623.03 350.348ZM651.035 303.62L650.338 303.513L650.338 303.513L651.035 303.62ZM641.235 206.484L640.561 206.69L640.561 206.69L641.235 206.484ZM553.346 87.3607C549.923 87.3623 546.519 87.874 543.247 88.879L543.661 90.2269C546.8 89.263 550.064 88.7722 553.347 88.7707L553.346 87.3607ZM649.715 203.938C639.385 170.101 623.945 140.991 606.79 120.327C589.661 99.694 570.711 87.3548 553.346 87.3607L553.347 88.7707C570.075 88.765 588.664 100.701 605.705 121.228C622.721 141.724 638.081 170.659 648.366 204.35L649.715 203.938ZM625.623 358.84C643.865 353.273 655.5 332.94 659.785 304.998C664.079 276.999 661.049 241.107 649.715 203.938L648.366 204.349C659.653 241.361 662.647 277.037 658.392 304.784C654.128 332.586 642.64 352.173 625.211 357.491L625.623 358.84ZM615.523 360.323C618.944 360.333 622.348 359.833 625.622 358.84L625.212 357.491C622.072 358.443 618.808 358.922 615.527 358.913L615.523 360.323ZM519.156 243.769C529.48 277.589 544.918 306.69 562.072 327.351C579.202 347.981 598.154 360.323 615.525 360.323V358.913C598.791 358.913 580.198 346.974 563.157 326.45C546.142 305.957 530.784 277.03 520.505 243.357L519.156 243.769ZM543.249 88.8787C525.006 94.4447 513.371 114.778 509.086 142.719C504.792 170.716 507.822 206.606 519.156 243.769L520.505 243.357C509.218 206.351 506.224 170.678 510.48 142.933C514.743 115.133 526.231 95.545 543.66 90.2273L543.249 88.8787ZM553.358 96.8989C567.156 96.8989 583.543 107.272 599.452 126.425L600.537 125.524C584.555 106.284 567.807 95.4889 553.358 95.4889V96.8989ZM552.829 95.7248L552.794 95.7709L553.922 96.6169L553.957 96.5708L552.829 95.7248ZM546.084 97.9743C548.453 97.2426 550.917 96.8647 553.396 96.8528L553.389 95.4428C550.771 95.4554 548.169 95.8545 545.667 96.6271L546.084 97.9743ZM518.567 144.125C520.506 131.463 524.012 120.939 528.729 113.071C533.446 105.203 539.35 100.031 546.081 97.975L545.67 96.6265C538.508 98.8135 532.358 104.277 527.52 112.346C522.682 120.414 519.132 131.127 517.174 143.911L518.567 144.125ZM528.345 240.947C517.772 206.294 514.31 171.953 518.567 144.125L517.174 143.911C512.876 172 516.378 206.559 526.996 241.359L528.345 240.947ZM569.42 321.283C552.497 300.812 537.859 272.307 528.345 240.949L526.996 241.358C536.552 272.858 551.268 301.539 568.333 322.181L569.42 321.283ZM615.513 350.796C601.703 350.796 585.316 340.434 569.419 321.282L568.334 322.183C584.305 341.423 601.053 352.206 615.513 352.206V350.796ZM622.822 349.675C620.453 350.407 617.989 350.784 615.51 350.796L615.516 352.206C618.135 352.194 620.737 351.795 623.238 351.022L622.822 349.675ZM650.338 303.513C648.399 316.18 644.894 326.707 640.177 334.577C635.459 342.446 629.556 347.618 622.824 349.674L623.236 351.023C630.397 348.836 636.548 343.372 641.386 335.302C646.223 327.232 649.774 316.516 651.732 303.726L650.338 303.513ZM640.561 206.69C651.146 241.355 654.596 275.742 650.338 303.513L651.732 303.726C656.029 275.695 652.539 241.09 641.91 206.278L640.561 206.69ZM599.452 126.425C616.386 146.837 631.001 175.342 640.561 206.69L641.91 206.279C632.307 174.792 617.615 146.11 600.537 125.524L599.452 126.425Z" fill="#232323"/>
<path d="M597.68 265.017C629.057 255.538 649.526 231.412 643.399 211.13C637.272 190.848 606.869 182.089 575.492 191.568C544.115 201.046 523.646 225.172 529.773 245.455C535.899 265.737 566.303 274.495 597.68 265.017Z" fill="white" stroke="#232323" stroke-width="1.41401"/>
<path d="M597.408 264.814C611.651 260.512 618.182 240.423 611.996 219.945C605.81 199.467 589.249 186.355 575.007 190.657C560.764 194.96 554.232 215.048 560.418 235.526C566.604 256.004 583.165 269.117 597.408 264.814Z" fill="#232323"/>
<path d="M304.476 152.499L312.555 151.511L376.031 670.724L367.951 671.711L304.476 152.499Z" fill="white" stroke="#232323" stroke-width="1.41" stroke-linecap="round"/>
<path d="M605.437 216.446C611.053 216.446 615.605 211.893 615.605 206.277C615.605 200.661 611.053 196.108 605.437 196.108C599.82 196.108 595.268 200.661 595.268 206.277C595.268 211.893 599.82 216.446 605.437 216.446Z" fill="white"/>
<path d="M340.11 517.559C400.793 517.559 449.985 468.366 449.985 407.684C449.985 347.002 400.793 297.809 340.11 297.809C279.428 297.809 230.235 347.002 230.235 407.684C230.235 468.366 279.428 517.559 340.11 517.559Z" fill="#93D2F9"/>
<path d="M449.271 395.267C447.368 378.468 445.627 369.729 437.234 356.286C427.007 357.992 397.065 328.212 401.493 370.536C403.476 389.237 370.894 380.797 371.712 398.991C372.473 416.077 434.317 438.018 411.074 491.526C439.098 467.843 453.431 431.721 449.271 395.267Z" fill="#1E9E6A" stroke="#232323" stroke-width="1.41"/>
<path d="M309.511 421.865C309.511 421.865 334.057 415.524 338.035 430.501C342.012 445.477 356.805 442.549 355.721 449.075C354.637 455.6 331.889 470.035 315.287 450.896C298.685 431.757 300.103 423.168 309.511 421.865Z" fill="#1E9E6A" stroke="#232323" stroke-width="1.41"/>
<path d="M352.827 312.589C352.827 312.589 327.658 304.207 316.025 316.509C304.392 328.811 328.707 327.716 327.243 331.717C325.779 335.717 313.051 367.804 332.627 361.601C352.204 355.398 379.99 324.753 352.827 312.589Z" fill="#1E9E6A" stroke="#232323" stroke-width="1.41"/>
<path d="M289.231 453.571C303.481 457.433 292.897 434.513 283.132 427.053C273.366 419.594 275.81 405.251 287.202 393.307C298.593 381.362 298.996 333.596 274.588 335.544C260.407 336.697 247.321 352.204 238.847 365.037C223.81 400.752 228.717 441.749 251.76 472.906C259.323 473.044 260.58 460.097 259.946 451.599C259.127 440.75 274.992 449.709 289.231 453.571Z" fill="#1E9E6A" stroke="#232323" stroke-width="1.41"/>
<g opacity="0.65">
<path fill-rule="evenodd" clip-rule="evenodd" d="M354.307 498.305C414.342 489.29 456.641 439.572 448.786 387.257C440.93 334.943 385.893 299.841 325.859 308.856C265.824 317.872 223.524 367.589 231.38 419.904C239.236 472.219 294.272 507.32 354.307 498.305Z" stroke="white" stroke-width="0.71"/>
<path fill-rule="evenodd" clip-rule="evenodd" d="M348.083 467.77C408.342 460.296 453.619 425.433 449.212 389.901C444.805 354.368 392.383 331.622 332.124 339.096C271.865 346.57 226.588 381.433 230.995 416.965C235.402 452.497 287.824 475.244 348.083 467.77Z" stroke="white" stroke-width="0.71"/>
<path fill-rule="evenodd" clip-rule="evenodd" d="M343.877 434.16C404.116 426.945 451.264 407.022 449.185 389.661C447.105 372.3 396.586 364.075 336.347 371.29C276.108 378.505 228.96 398.428 231.04 415.789C233.119 433.15 283.638 441.375 343.877 434.16Z" stroke="white" stroke-width="0.71"/>
<path d="M231.007 415.708L449.19 389.79" stroke="white" stroke-width="0.71"/>
<path fill-rule="evenodd" clip-rule="evenodd" d="M352.521 516.783C402.882 511.054 438.148 457.548 431.292 397.273C424.435 336.999 378.051 292.781 327.69 298.51C277.33 304.239 242.063 357.745 248.92 418.02C255.776 478.294 302.16 522.512 352.521 516.783Z" stroke="white" stroke-width="0.71"/>
<path fill-rule="evenodd" clip-rule="evenodd" d="M352.675 516.824C386.751 512.947 408.814 460.927 401.955 400.634C395.096 340.34 361.912 294.605 327.837 298.481C293.761 302.358 271.697 354.378 278.556 414.671C285.415 474.965 318.599 520.7 352.675 516.824Z" stroke="white" stroke-width="0.71"/>
<path fill-rule="evenodd" clip-rule="evenodd" d="M353.295 516.73C369.94 514.836 377.878 464.459 371.024 404.21C364.17 343.961 345.12 296.654 328.475 298.548C311.829 300.441 303.891 350.818 310.745 411.067C317.599 471.317 336.649 518.623 353.295 516.73Z" stroke="white" stroke-width="0.71"/>
<path d="M328.465 298.558L353.288 516.741" stroke="white" stroke-width="0.71"/>
</g>
<path fill-rule="evenodd" clip-rule="evenodd" d="M340.11 517.559C400.792 517.559 449.985 468.366 449.985 407.684C449.985 347.001 400.792 297.809 340.11 297.809C279.427 297.809 230.235 347.001 230.235 407.684C230.235 468.366 279.427 517.559 340.11 517.559Z" stroke="#232323" stroke-width="1.41"/>
<path d="M371.735 456.799C371.735 456.799 383.265 459.105 384.417 462.622C385.57 466.138 356.551 475.523 357.266 466.369C357.981 457.214 352.988 456.396 371.735 456.799Z" fill="#1E9E6A" stroke="#232323" stroke-width="1.41"/>
<path d="M406.243 337.631C406.243 337.631 387.588 338.219 383.691 331.152C379.794 324.084 395.947 330.702 395.889 325.041C395.832 319.38 417.069 338.392 406.243 337.631Z" fill="#1E9E6A" stroke="#232323" stroke-width="1.41"/>
<path opacity="0.28" d="M449.271 395.267C445.64 363.11 428.007 334.193 401.082 316.241C374.157 298.289 340.684 293.13 309.603 302.144C312.048 301.936 314.492 301.798 316.982 301.752C371.994 300.949 419.119 340.957 427.253 395.369C435.388 449.782 402.025 501.823 349.184 517.144C350.337 517.052 351.409 516.971 352.527 516.844C381.479 513.551 407.936 498.892 426.079 476.092C444.222 453.292 452.564 424.218 449.271 395.267Z" fill="#232323" stroke="#232323" stroke-width="1.41"/>
<path d="M483.594 545.103C483.594 545.103 552.113 555.906 574.549 612.285C574.549 612.285 635.851 621.266 663.21 677.922" stroke="#232323" stroke-width="1.41" stroke-linecap="round"/>
<path d="M742.394 372.162C742.394 372.162 773.766 378.699 800.675 407.684" stroke="#232323" stroke-width="1.41"/>
<path d="M566.317 476.941C566.317 476.941 579.633 442.226 562.858 409.921" stroke="#232323" stroke-width="1.41"/>
<path d="M468.363 358.442C468.363 358.442 480.481 353.646 469.897 339.199" stroke="#232323" stroke-width="1.41" stroke-linecap="round"/>
<path d="M656.8 683.652C633.741 647.23 583.404 629.786 570.687 625.866C544.492 723.866 552.24 837.65 553.612 860.997C553.987 865.207 553.492 869.45 552.159 873.461C559.006 877.298 566.307 880.261 573.892 882.281C603.004 831.459 643.668 727.936 654.967 687.434C655.351 686.075 655.971 684.795 656.8 683.652Z" fill="#F97450" stroke="#232323" stroke-width="1.41"/>
<path d="M552.136 873.461C544.653 893.833 511.783 877.139 511.783 877.139C511.783 877.139 538.358 898.975 552.47 910.366C557.97 907.288 565.429 896.981 573.857 882.281C566.273 880.261 558.971 877.298 552.124 873.461L552.136 873.461Z" fill="#7F0E0E" stroke="#232323" stroke-width="1.41"/>
<path d="M349.057 517.294C349.057 517.294 357.127 523.266 358.938 531.06C357.865 522.275 356.632 516.302 356.632 516.302L349.057 517.294Z" fill="#232323" stroke="#232323" stroke-width="1.41" stroke-linecap="round"/>
<path opacity="0.61" d="M527.67 143.591C524.857 158.314 523.693 177.499 527.094 201.238" stroke="white" stroke-width="4.24"/>
<path opacity="0.61" d="M541.921 106.455C541.921 106.455 537.69 111.874 533.447 122.919" stroke="white" stroke-width="4.24"/>
<path d="M781.848 201.261H818.212C835.735 201.261 849.941 215.467 849.941 232.99C849.944 241.407 846.602 249.481 840.651 255.433C834.701 261.386 826.629 264.731 818.212 264.731H781.848V201.319L781.848 201.261Z" fill="#232323" stroke="#232323" stroke-width="1.41"/>
<path d="M783.139 264.719C800.663 264.719 814.868 250.514 814.868 232.99C814.868 215.467 800.663 201.261 783.139 201.261C765.616 201.261 751.41 215.467 751.41 232.99C751.41 250.514 765.616 264.719 783.139 264.719Z" fill="white" stroke="#232323" stroke-width="1.41"/>
<path d="M148.86 594.403H112.496C94.9729 594.403 80.7674 580.197 80.7674 562.674C80.7674 545.15 94.9729 530.945 112.496 530.945H148.86L148.86 594.357L148.86 594.403Z" fill="#232323" stroke="#232323" stroke-width="1.41"/>
<path d="M147.569 594.391C165.092 594.391 179.298 580.186 179.298 562.662C179.298 545.139 165.092 530.933 147.569 530.933C130.045 530.933 115.84 545.139 115.84 562.662C115.84 580.186 130.045 594.391 147.569 594.391Z" fill="white" stroke="#232323" stroke-width="1.41"/>
<path d="M732.283 630.282C715.911 650.931 696.415 671.338 675.973 683.663" stroke="#232323" stroke-width="1.41" stroke-linecap="round"/>
<path d="M743.005 616.159C740.988 618.914 738.912 621.704 736.78 624.494" stroke="#232323" stroke-width="1.41" stroke-linecap="round"/>
<path d="M777.928 561.187C777.928 561.187 768.462 579.023 753.151 601.678" stroke="#232323" stroke-width="1.41" stroke-linecap="round"/>
<path d="M388.903 305.418L397.884 301.602" stroke="#232323" stroke-width="1.41" stroke-linecap="round"/>
<path d="M413.483 294.972L499.227 258.551" stroke="#232323" stroke-width="1.41" stroke-linecap="round" stroke-dasharray="14.69"/>
<path d="M507.021 255.242L516.014 251.414" stroke="#232323" stroke-width="1.41" stroke-linecap="round"/>
<path d="M450.112 579.818C449.861 583.294 449.818 586.782 449.985 590.264" stroke="#232323" stroke-width="1.41" stroke-linecap="round"/>
<path d="M489.024 516.302C474.302 525.636 462.763 539.222 455.934 555.26C454.293 559.204 452.978 563.276 452.003 567.435" stroke="#232323" stroke-width="1.41" stroke-linecap="round"/>
<path d="M206.634 411.615C206.634 411.615 169.071 411.961 160.793 422.384C152.515 432.807 225.761 429.129 225.761 429.129" stroke="#232323" stroke-width="1.41" stroke-linecap="round"/>
<path d="M793.746 738.036H830.917V775.207H793.746V738.036Z" fill="white"/>
<path d="M455.831 452.314C455.831 452.314 484.147 447.703 489.024 456.719C493.901 465.735 436.127 472.987 436.127 472.987" stroke="#232323" stroke-width="1.41" stroke-linecap="round"/>
<path fill-rule="evenodd" clip-rule="evenodd" d="M777.928 722.218H815.099V759.389H777.928V722.218Z" stroke="#232323" stroke-width="1.41" stroke-linecap="round"/>
</svg>
