<svg width="136" height="135" viewBox="0 0 136 135" fill="none" xmlns="http://www.w3.org/2000/svg">
<mask id="mask0_0_6751" style="mask-type:alpha" maskUnits="userSpaceOnUse" x="0" y="0" width="135" height="134">
<circle cx="67.6245" cy="67.0967" r="66.7784" fill="white"/>
</mask>
<g mask="url(#mask0_0_6751)">
<path d="M-17.3167 264.774C-28.8991 299.361 -51.5638 279.216 -51.5638 279.216C-51.5638 279.216 -62.8629 257.055 -61.6241 236.218C-60.3853 215.381 -0.895676 125.881 7.1938 128.914C15.2833 131.946 16.9304 197.31 16.9304 197.31L-22.6604 241.741L-17.3167 264.774Z" fill="#B044BF"/>
<path d="M5.11957 129.585C11.8837 122.919 92.6906 99.1085 128.337 119.945C159.471 138.145 108.297 261.486 108.297 261.486C108.297 261.486 65.8188 283.981 20.6441 260.424C7.02004 253.32 5.13536 182.218 4.90497 156.059" fill="#42CD73"/>
<mask id="mask1_0_6751" style="mask-type:alpha" maskUnits="userSpaceOnUse" x="4" y="111" width="135" height="161">
<path fill-rule="evenodd" clip-rule="evenodd" d="M5.1196 129.585C11.8837 122.919 92.6906 99.1085 128.337 119.945C159.471 138.145 108.297 261.486 108.297 261.486C108.297 261.486 65.8188 283.981 20.6441 260.424C7.02007 253.32 5.13539 182.218 4.905 156.059" fill="white"/>
</mask>
<g mask="url(#mask1_0_6751)">
<ellipse cx="68.1858" cy="122.808" rx="34.3617" ry="24.8367" transform="rotate(-36.3608 68.1858 122.808)" fill="#A63EB7"/>
</g>
<path d="M110.313 162.832C112.571 192.186 113.7 255.976 113.7 255.976L39.4182 333.887C39.4281 343.042 72.1671 366.873 72.1671 366.873C72.1671 366.873 141.375 296.985 146.03 290.867C150.684 284.749 179.548 159.314 131.638 122.215" fill="#B044BF"/>
<path d="M38.6202 53.4699C22.0735 39.608 26.4859 74.3862 43.2778 78.0993L38.6202 53.4699Z" fill="#B145C1"/>
<path d="M97.169 53.4699C113.716 39.608 109.303 74.3862 92.5114 78.0993L97.169 53.4699Z" fill="#B145C1"/>
<path d="M46.3776 121.696V72.095H89.4139L89.8637 114.599" fill="#A63EB7"/>
<path d="M69.3479 11.3995V11.2656C68.8548 11.2776 68.3734 11.2979 67.8941 11.3188C67.4134 11.2979 66.9327 11.2776 66.44 11.2656V11.3995C30.2914 13.7265 34.4714 41.664 36.6215 58.7917C38.2844 72.0394 45.2535 89.5828 57.089 98.0854C64.2321 103.046 73.7709 102.784 80.6312 97.4395C92.6487 88.4436 97.4492 72.4603 99.1649 58.7917C101.316 41.664 105.496 13.7265 69.3479 11.3995Z" fill="#B145C1"/>
<mask id="mask2_0_6751" style="mask-type:alpha" maskUnits="userSpaceOnUse" x="35" y="11" width="66" height="91">
<path fill-rule="evenodd" clip-rule="evenodd" d="M69.3478 11.3995V11.2656C68.8548 11.2776 68.3734 11.2979 67.8941 11.3188C67.4134 11.2979 66.9327 11.2776 66.4399 11.2656V11.3995C30.2914 13.7265 34.4714 41.664 36.6215 58.7917C38.2844 72.0394 45.2535 89.5828 57.089 98.0854C64.232 103.046 73.7708 102.784 80.6312 97.4395C92.6487 88.4436 97.4491 72.4603 99.1649 58.7917C101.316 41.664 105.496 13.7265 69.3478 11.3995Z" fill="white"/>
</mask>
<g mask="url(#mask2_0_6751)">
<path d="M33.8818 67.1979C46.7515 67.7548 45.2813 35.2125 45.2813 35.2125C45.2813 35.2125 68.0664 48.2148 86.8195 33.7361C86.8195 33.7361 86.2804 63.239 99.8856 66.3951C113.491 69.5513 96.4617 9.65824 96.4617 9.65824L49.6938 10.1513C49.6938 10.1513 35.9049 7.18092 31.6761 15.1643C27.4473 23.1477 22.2997 38.5562 23.2189 44.1257C24.1381 49.6953 33.8818 67.1979 33.8818 67.1979Z" fill="#FCFAFC"/>
<ellipse opacity="0.27" cx="48.8808" cy="76.1002" rx="8.15163" ry="6.26763" transform="rotate(-2.6142 48.8808 76.1002)" fill="#8A2C9E"/>
<ellipse opacity="0.27" cx="87.3376" cy="74.3925" rx="8.15163" ry="6.26763" transform="rotate(-2.6142 87.3376 74.3925)" fill="#8A2C9E"/>
<rect x="54.114" y="55.8562" width="5.79617" height="10.7951" rx="2.89793" transform="rotate(1.61023 54.114 55.8562)" fill="#0B2658"/>
<rect x="76.4085" y="55.5757" width="5.7962" height="10.7951" rx="2.89793" transform="rotate(1.6102 76.4085 55.5757)" fill="#0B2658"/>
<path d="M56.4747 49.0311C50.5147 50.6061 52.053 53.9068 55.8426 53.1665C59.6322 52.4262 60.3687 48.0021 56.4747 49.0311Z" fill="#0B2658"/>
<path d="M79.3244 48.5284C85.1882 50.4358 83.9254 53.4069 80.1828 52.4558C76.4402 51.5047 75.4932 47.2821 79.3244 48.5284Z" fill="#0B2658"/>
<path d="M71.2486 68.4724C71.2322 70.4512 69.5611 69.6522 67.4916 69.6344C65.4222 69.6165 63.7377 70.3863 63.7545 68.4079C63.8602 66.4034 65.5253 64.8373 67.5325 64.8546C69.5397 64.8719 71.1775 66.4664 71.2486 68.4724Z" fill="#8A2C9E"/>
<path d="M59.4543 79.4899C62.9865 93.551 75.8977 86.7437 75.576 77.8851C75.553 77.4286 75.2481 77.0348 74.812 76.8983C69.9128 75.6157 64.7205 76.072 60.1201 78.1893C59.6067 78.3981 59.3235 78.9513 59.4543 79.4899Z" fill="#8A2C9E"/>
<mask id="mask3_0_6751" style="mask-type:alpha" maskUnits="userSpaceOnUse" x="59" y="76" width="17" height="12">
<path fill-rule="evenodd" clip-rule="evenodd" d="M59.4543 79.4899C62.9865 93.551 75.8977 86.7437 75.576 77.8851C75.553 77.4286 75.2481 77.0348 74.812 76.8983C69.9128 75.6157 64.7205 76.072 60.1201 78.1893C59.6067 78.3981 59.3235 78.9513 59.4543 79.4899Z" fill="white"/>
</mask>
<g mask="url(#mask3_0_6751)">
<ellipse opacity="0.29" cx="70.0349" cy="86.6852" rx="7.21323" ry="6.48051" transform="rotate(-24.7016 70.0349 86.6852)" fill="#0B2658"/>
<path d="M61.7816 77.0364C61.7905 77.8725 61.9765 78.6973 62.3272 79.4564C63.9461 80.757 71.1463 79.4907 72.0682 78.5856C72.207 77.4955 72.2185 76.3929 72.1026 75.3L62.8412 76.4297" fill="white"/>
</g>
</g>
</g>
</svg>
